HIERARCHY
ROOT Hips
{
	OFFSET 0.000000 0.000000 0.000000 
	CHANNELS 6 Xposition Yposition Zposition Yrotation Zrotation Xrotation 
	JOINT Lumbar
	{
		OFFSET 0.000000 0.000000 0.000000 
		CHANNELS 3 Zrotation Xrotation Yrotation
		JOINT Neck
		{
			OFFSET 0.000000 0.445665 0.000000 
			CHANNELS 3 Zrotation Xrotation Yrotation
			End Site
			{
				OFFSET 0.000000 0.227535 0.000000 
			}
		}
		JOINT RightShoulder
		{
			OFFSET 0.019635 0.377685 0.194865 
			CHANNELS 3 Zrotation Xrotation Yrotation
			JOINT RightElbow
			{
				OFFSET 0.000000 -0.243375 0.000000 
				CHANNELS 2 Zrotation Yrotation
				JOINT RightWrist
				{
					OFFSET 0.000000 -0.264825 0.000000 
					CHANNELS 2 Zrotation Xrotation
					End Site
					{
						OFFSET 0.006600 -0.176220 0.000990 
					}
				}
			}
		}
		JOINT LeftShoulder
		{
			OFFSET 0.019635 0.377685 -0.194865 
			CHANNELS 3 Zrotation Xrotation Yrotation
			JOINT LeftElbow
			{
				OFFSET 0.000000 -0.243375 0.000000 
				CHANNELS 2 Zrotation Yrotation
				JOINT LeftWrist
				{
					OFFSET 0.000000 -0.264825 0.000000 
					CHANNELS 2 Zrotation Xrotation
					End Site
					{
						OFFSET 0.006600 -0.176220 -0.000990 
					}
				}
			}
		}
	}
	JOINT RightHip
	{
		OFFSET 0.052140 -0.069960 0.075570 
		CHANNELS 3 Zrotation Xrotation Yrotation
		JOINT RightKnee
		{
			OFFSET 0.000000 -0.402270 0.000000 
			CHANNELS 1 Zrotation
			JOINT RightAnkle
			{
				OFFSET 0.000000 -0.404085 0.000000 
				CHANNELS 3 Zrotation Xrotation Yrotation
				End Site
				{
					OFFSET 0.204105 -0.089430 0.008415 
				}
			}
		}
	}
	JOINT LeftHip
	{
		OFFSET 0.052140 -0.069960 -0.075570 
		CHANNELS 3 Zrotation Xrotation Yrotation
		JOINT LeftKnee
		{
			OFFSET 0.000000 -0.402270 0.000000 
			CHANNELS 1 Zrotation
			JOINT LeftAnkle
			{
				OFFSET 0.000000 -0.404085 0.000000 
				CHANNELS 3 Zrotation Xrotation Yrotation
				End Site
				{
					OFFSET 0.204105 -0.089430 -0.008415 
				}
			}
		}
	}
}
MOTION
Frames: 33
Frame Time: 0.02
-1.02188 -0.06316 0.03953 87.17873 0 -39.76513 30.4852 14.7631 18.43478 -63.29955 28.40558 22.26829 151.57618 -70.38848 43.35891 48.87984 88.81364 -15.90387 -4.89774 -8.44182 -15.17976 2.49559 37.862 -71.07998 -75.22811 21.87485 126.66729 -30.16178 -30.45319 -131.78688 -18.97193 -0.03719 12.92448 126.63998 32.02132 35.06099 -55.26748 14.26832 2.5875 0.63421
-1.02216 -0.06319 0.03869 87.36472 0 -39.75173 30.36335 14.86254 19.15961 -63.47025 28.99319 21.60888 147.62215 -75.4305 41.33886 43.80109 85.94766 -17.96497 -4.35004 -7.96758 -15.15977 2.91769 37.66886 -71.17479 -75.21868 21.78541 126.62502 -30.32722 -30.25747 -131.92811 -18.83477 -0.21965 12.58046 126.63887 32.01942 35.06402 -55.61517 14.20117 2.38382 0.57584
-1.02212 -0.06332 0.03792 87.55589 0 -39.67358 30.23327 14.92107 19.8147 -63.63731 29.57168 20.95064 141.44405 -80.65213 39.25711 38.78448 82.13621 -19.20336 -3.50141 -7.51572 -15.10984 3.22949 37.45565 -71.15251 -75.20558 21.66 126.54878 -30.57677 -30.14749 -132.06546 -18.72612 -0.52566 12.02411 126.63981 32.02071 34.98685 -55.9563 14.08978 2.4708 0.56436
-1.02221 -0.06342 0.03713 87.74547 0 -39.6162 30.10687 14.99582 20.49118 -63.80378 30.14426 20.2771 136.6996 -85.73938 37.38968 33.7688 79.13731 -20.40935 -2.80444 -7.06016 -15.07066 3.60307 37.25986 -71.18764 -75.19331 21.54224 126.49268 -30.78556 -30.00062 -132.20503 -18.61034 -0.75699 11.59781 126.63999 32.02083 34.9422 -56.30152 13.98732 2.4306 0.54441
-1.02237 -0.06346 0.03626 87.93138 0 -39.59552 29.97905 15.08048 21.21391 -63.97952 30.75745 19.66377 130.18763 -91.0419 34.74777 28.58349 74.63476 -23.26833 -2.05314 -6.57526 -15.04413 3.9343 37.02862 -71.20349 -75.18514 21.46747 126.41848 -31.00685 -29.8441 -132.34408 -18.47685 -1.06051 11.03995 126.63943 32.01973 34.91413 -56.64147 13.93298 2.36267 0.47152
-1.0223 -0.06366 0.03558 88.12642 0 -39.48148 29.85341 15.13483 21.82578 -64.13568 31.28656 18.9237 126.7848 -95.94425 33.68103 23.79517 72.95137 -22.53523 -1.3313 -6.15729 -14.98223 4.32457 36.86837 -71.23655 -75.16687 21.28668 126.37294 -31.22093 -29.72928 -132.4824 -18.38241 -1.24653 10.69961 126.64089 32.0219 34.83123 -56.99115 13.76784 2.42397 0.52033
-1.02165 -0.06426 0.03541 88.34477 0 -39.14385 29.72944 15.1152 22.10898 -64.23232 31.56083 17.86334 132.97717 -99.66243 37.21315 19.95187 79.84681 -11.81409 -0.87934 -5.92253 -14.85012 4.90832 36.88716 -71.28857 -75.12791 20.89352 126.41846 -31.40005 -29.69713 -132.62394 -18.41314 -1.06304 11.03924 126.64784 32.03292 34.63231 -57.36882 13.30448 2.77275 0.88264
-1.02077 -0.06503 0.03542 88.57258 0 -38.71138 29.60934 15.06637 22.28862 -64.31044 31.75501 16.67064 142.29387 -102.97778 42.29137 16.5359 89.50297 2.43173 -0.44947 -5.75429 -14.67946 5.55315 36.98178 -71.369 -75.07797 20.38394 126.49312 -31.56781 -29.70579 -132.76399 -18.47708 -0.76042 11.59901 126.6567 32.04703 34.37855 -57.75709 12.73204 3.24124 1.36648
-1.01998 -0.06574 0.03536 88.79615 0 -38.31037 29.49179 15.03131 22.54185 -64.40126 32.00258 15.51941 149.87586 -106.50265 46.50814 13.01868 97.51128 14.88923 0.06979 -5.55294 -14.51393 6.16758 37.056 -71.47742 -75.02863 19.87773 126.55183 -31.73694 -29.70368 -132.90174 -18.50903 -0.5228 12.0388 126.66444 32.05935 34.13937 -58.14038 12.21076 3.65615 1.80302
-1.01925 -0.0664 0.03527 89.01844 0 -37.95584 29.35562 14.99339 22.68438 -64.47424 32.17961 14.4464 158.70088 -109.92651 51.38849 9.11171 107.12829 28.18909 0.27802 -5.36309 -14.4013 6.79186 37.07083 -71.42205 -74.99674 19.56965 126.62076 -31.92497 -29.67299 -133.05175 -18.61294 -0.24379 12.55503 126.6733 32.07343 33.93979 -58.5224 11.6792 4.08182 2.21223
-1.01833 -0.06718 0.03527 89.24709 0 -37.48329 29.25943 14.95419 23.02923 -64.5796 32.48279 13.17976 165.71803 -113.45714 55.26043 6.11589 114.08687 40.52849 1.10807 -5.16655 -14.16764 7.40851 37.22681 -71.69989 -74.92714 18.83397 126.67583 -32.06993 -29.7088 -133.17615 -18.57502 -0.02079 12.96766 126.68027 32.08453 33.64734 -58.91182 11.1463 4.50443 2.70099
-1.01706 -0.06833 0.0355 89.47766 0 -36.70465 29.27141 14.92577 23.99579 -64.78218 33.1689 11.40595 166.90196 -117.42549 55.92044 5.54668 112.81759 49.62435 3.80476 -4.9202 -13.62793 8.01527 37.75978 -73.02706 -74.74614 16.84413 126.68495 -32.09716 -29.93242 -133.22815 -18.13149 0.01611 13.03595 126.6815 32.08647 33.09899 -59.3007 10.61637 4.93312 3.42611
-1.01559 -0.06959 0.03582 89.71654 0 -35.81168 29.3237 14.89589 25.16174 -65.01714 33.98123 9.44371 166.18387 -121.50377 55.52151 5.87701 108.8207 57.57803 7.10014 -4.66754 -12.96494 8.60787 38.43024 -74.66156 -74.52963 14.44952 126.67938 -32.08128 -30.21898 -133.25477 -17.54456 -0.00642 12.99425 126.68076 32.08531 32.46217 -59.70001 10.09417 5.34457 4.21715
-1.01415 -0.07076 0.0361 89.96065 0 -34.97337 29.35857 14.86218 26.21336 -65.23545 34.72692 7.56977 166.39857 -125.50464 55.64024 5.78492 106.21721 65.87145 10.02462 -4.42753 -12.34557 9.19043 39.03532 -76.06939 -74.3357 12.30426 126.68107 -32.08575 -30.46636 -133.29444 -17.02755 0.00039 13.00687 126.68098 32.08565 31.87439 -60.10683 9.58008 5.73424 4.94863
-1.01298 -0.0721 0.03638 90.16803 0 -34.11949 29.39021 14.84648 27.36588 -65.46232 35.51204 5.6761 166.43351 -129.61673 55.66013 5.76385 103.06425 75.04171 13.36335 -4.14851 -11.77501 9.84477 39.65923 -77.85433 -74.11345 9.86922 126.68132 -32.08673 -30.75779 -133.32789 -16.49356 0.00144 13.0088 126.68102 32.08572 31.24624 -60.46285 9.00753 6.25497 5.81356
-1.01119 -0.07312 0.03668 90.45256 0 -33.27314 29.43757 14.79319 28.3514 -65.67798 36.2422 3.78534 166.34895 -133.51686 55.61301 5.80466 100.36689 82.07311 15.98468 -3.94844 -11.07675 10.34526 40.27059 -78.9153 -73.9428 7.95514 126.68067 -32.08478 -30.97449 -133.36802 -15.95806 -0.00119 13.00392 126.68092 32.08556 30.68328 -60.92631 8.56697 6.49495 6.4093
-1.00781 -0.07321 0.03704 90.95801 0 -32.46715 29.52289 14.63762 28.87587 -65.86608 36.82275 1.9085 166.40268 -136.90589 55.64288 5.77987 99.62852 83.41512 16.4516 -3.96563 -10.0319 10.42486 40.85424 -78.00283 -73.91505 7.47113 126.68109 -32.08598 -30.94626 -133.43527 -15.47359 0.00047 13.00705 126.68099 32.08568 30.30864 -61.69065 8.42963 5.97344 6.29001
-1.00381 -0.07299 0.03742 91.53873 0 -31.67452 29.62178 14.44417 29.21756 -66.03976 37.3378 0.04976 166.38552 -140.06106 55.6334 5.78729 99.42318 82.63699 16.18076 -4.06169 -8.86699 10.34913 41.41125 -76.33658 -73.94153 7.54188 126.68095 -32.08558 -30.8444 -133.50982 -14.98871 -7e-05 13.00592 126.68097 32.08563 30.00406 -62.56181 8.43615 5.16286 5.88863
-1.00005 -0.07294 0.03779 92.07864 0 -30.88203 29.71157 14.26748 29.61037 -66.21272 37.86163 -1.79086 166.38372 -143.25883 55.63238 5.78848 98.93736 82.8539 16.26569 -4.12391 -7.77374 10.34467 41.95514 -74.94352 -73.94934 7.43497 126.68094 -32.08556 -30.79167 -133.57921 -14.49057 -0.00015 13.00585 126.68093 32.08558 29.67821 -63.37914 8.41668 4.48364 5.58664
-0.99645 -0.0728 0.03818 92.64742 0 -30.06016 29.81524 14.09274 30.14168 -66.41752 38.47861 -3.75142 166.38974 -146.72848 55.63575 5.78557 98.51771 82.90388 16.28587 -4.1811 -6.60609 10.33938 42.61575 -73.83599 -73.93283 7.01653 126.68098 -32.08567 -30.67646 -133.65487 -14.04388 -2e-05 13.00626 126.68106 32.0858 29.3103 -64.21767 8.23245 3.82315 5.40862
-0.99238 -0.07276 0.03853 93.17296 0 -29.30302 29.89258 13.90482 30.34262 -66.55213 38.88412 -5.45286 166.38573 -149.57562 55.63353 5.78742 98.12435 82.8078 16.25684 -4.26302 -5.56384 10.29598 43.01837 -71.97344 -73.97762 7.3627 126.68093 -32.08546 -30.67126 -133.72033 -13.4922 1e-05 13.00543 126.68085 32.08539 29.04067 -65.03913 8.42379 3.03113 4.90458
-0.9871 -0.07322 0.03887 93.56921 0 -28.73079 29.89533 13.68988 29.64118 -66.49695 38.72493 -6.46326 166.38709 -150.75374 55.63428 5.78682 97.66237 82.86623 16.27823 -4.43236 -4.92158 10.21548 42.77247 -68.01842 -74.19743 9.86842 126.68099 -32.08589 -31.00107 -133.74954 -12.64583 -0.00026 13.0067 126.67962 32.08309 29.08385 -65.77729 9.62996 2.16191 3.56977
-0.98138 -0.07376 0.03917 93.91846 0 -28.22131 29.87106 13.46206 28.62003 -66.37173 38.35514 -7.2087 166.38716 -151.31391 55.63432 5.78676 97.22397 82.84873 16.27136 -4.61636 -4.40627 10.09882 42.25693 -63.3673 -74.47077 13.09131 126.68092 -32.08525 -31.43986 -133.76986 -11.69414 2e-05 13.00566 126.67808 32.07973 29.21092 -66.50054 11.20522 1.13693 1.91756
-0.97591 -0.0742 0.03945 94.28263 0 -27.67851 29.85753 13.24122 27.76588 -66.27759 38.07749 -8.06147 166.38674 -152.16171 55.63409 5.78697 96.79529 82.84591 16.27068 -4.76891 -3.81685 9.976 41.82589 -59.15495 -74.71103 15.86843 126.68095 -32.0856 -31.82168 -133.79808 -10.79624 0.00048 13.00442 126.67676 32.07761 29.26433 -67.2319 12.6048 0.03361 0.4082
-0.97019 -0.07494 0.03987 94.67354 0 -27.15954 29.84933 13.018 26.80993 -66.18461 37.80779 -8.9694 166.38704 -152.97422 55.63425 5.78683 96.29698 82.85279 16.27307 -5.03028 -3.29031 9.93333 41.55258 -54.38568 -75.00208 19.17428 126.68115 -32.08704 -32.23855 -133.80891 -9.87857 -0.00169 13.01191 126.67509 32.07423 29.47883 -67.94438 14.04892 -0.47792 -1.11087
-0.9649 -0.07505 0.03999 95.00046 0 -26.60169 29.82554 12.79252 25.99734 -66.07471 37.47849 -9.69921 166.38693 -153.7146 55.63419 5.78688 95.94297 82.84841 16.27145 -5.06568 -2.66723 9.72948 40.88958 -50.63836 -75.18433 21.53744 126.68052 -32.08182 -32.60151 -133.85544 -8.97036 0.00267 12.99613 126.67408 32.07077 29.36594 -68.71255 15.47857 -2.22055 -2.67415
-0.96083 -0.07367 0.03937 95.12825 0 -25.95518 29.74781 12.60439 25.61665 -65.91812 36.98223 -10.00472 166.38693 -154.42356 55.63419 5.78688 95.98057 82.84981 16.27201 -4.48752 -1.72396 8.98766 39.19192 -49.73806 -75.17899 21.16279 126.68153 -32.09091 -32.8545 -133.9882 -8.1724 0.01458 12.95446 126.67509 32.07714 28.41434 -69.4578 16.83319 -7.61391 -4.33622
-0.95723 -0.07162 0.03844 95.1989 0 -25.26085 29.659 12.40727 25.3993 -65.74987 36.44265 -10.13882 166.38696 -155.07901 55.63421 5.78687 96.16024 82.84995 16.27198 -3.67811 -0.68382 8.10679 37.11458 -49.92134 -75.03704 19.80758 126.68106 -32.08511 -33.03704 -134.15974 -7.37715 0.03305 12.88114 126.67676 32.07381 27.1094 -70.29431 18.14379 -14.17992 -6.01556
-0.95347 -0.06973 0.03761 95.31798 0 -24.56612 29.586 12.18772 25.13666 -65.59868 35.95981 -10.35074 166.38694 -155.74963 55.63419 5.78688 96.27338 82.84946 16.27165 -2.96542 0.29637 7.35441 35.22919 -49.70732 -74.87665 18.86771 126.67861 -32.06761 -33.20987 -134.3232 -6.54188 0.05782 12.79918 126.67808 32.07846 25.91543 -71.20478 19.44477 -20.02473 -7.65589
-0.94945 -0.06848 0.03694 95.34193 0 -23.96741 29.46452 12.07886 24.74363 -65.39671 35.31718 -10.55722 166.38695 -156.43839 55.63421 5.78687 96.39659 82.8498 16.27213 -2.29001 1.33881 6.31626 33.25862 -49.06607 -75.06416 18.06772 126.68702 -32.13694 -33.56483 -134.44664 -5.86493 0.05146 12.81961 126.67962 32.10016 24.95272 -71.62104 20.90705 -26.69237 -9.45835
-0.9461 -0.0657 0.03587 95.5494 0 -23.15606 29.44434 11.73847 24.66133 -65.29701 34.99476 -10.7334 166.38694 -157.08321 55.63418 5.78688 96.53136 82.84966 16.2714 -1.48014 2.27703 5.85173 31.37111 -49.58217 -74.48631 16.75084 126.67289 -32.01074 -33.51953 -134.66206 -4.86244 0.10139 12.61266 126.68085 32.04373 23.39964 -73.09654 21.98891 -31.8946 -10.89883
-0.94455 -0.05897 0.03384 96.29225 0 -21.77362 29.683 10.75328 25.42963 -65.49705 35.61227 -10.90644 166.38693 -157.6337 55.63399 5.78691 96.66996 82.84951 16.26746 -0.37035 2.89469 6.92018 29.87635 -53.02806 -71.89383 14.09839 126.59217 -31.44717 -32.4109 -135.12783 -2.94374 0.39195 11.84382 126.68108 32.13722 20.52027 -77.39671 22.29253 -33.01049 -11.54963
-0.94368 -0.0507 0.03142 97.21923 0 -20.17836 30.02757 9.53743 26.4989 -65.79813 36.54639 -11.04902 166.38693 -158.14066 55.63377 5.78695 96.81399 82.84937 16.26254 0.86907 3.40472 8.59183 28.4688 -57.60602 -68.52445 10.98374 126.489 -30.67154 -30.89814 -135.68368 -0.70246 0.72297 10.83751 126.6809 32.09745 17.0292 -82.76703 22.17397 -32.57126 -11.80038
